{"title":"Rollerball.1975.DVDRip.XviD.AC3-SiC","uid":6984037,"size":1565879847,"categoryP":"video","categoryS":"movies","magnet":"?xt=urn:btih:f20a485887d155206272262f9ddf3ce384980c3b&amp;dn=Rollerball.1975.DVDRip.XviD.AC3-SiC&amp;tr=udp%3A%2F%2Ftracker.openbittorrent.com%3A80&amp;tr=udp%3A%2F%2Fopen.demonii.com%3A1337&amp;tr=udp%3A%2F%2Ftracker.coppersurfer.tk%3A6969&amp;tr=udp%3A%2F%2Fexodus.desync.com%3A6969","seeders":3,"leechers":0,"uploader":"TvTeam","files":5,"time":1327507174,"description":". \n &lt;a href=&quot;\nhttp://www.torrenting.com&quot; rel=&quot;nofollow&quot; target=&quot;_NEW&quot;&gt;\nhttp://www.torrenting.com&lt;/a&gt;          :     Once &amp; For all ;)\n\n\n               www . Torrenting . Com \n\n(((((((((((((= Enjoy No RAR releases =))))))))))))))))))))\n\n\n...................................NFO:....................................\n\n.Rollerball.1975.DVDRip.XviD.AC3-SiC\n\nPoster:\n[IMG]http://i.imgur.com/V91jn.jpg[/IMG]\n\nIMDB Link: &lt;a href=&quot;\nhttp://www.imdb.com/title/tt0073631/&quot; rel=&quot;nofollow&quot; target=&quot;_NEW&quot;&gt;\nhttp://www.imdb.com/title/tt0073631/&lt;/a&gt;\n\nDescription:\nIn a corporate controlled future, an ultra-violent sport known as Rollerball represents the world, and one of it's powerful athletes is out to defy those who want him out of the game. \n\nGeneral:\nComplete name                            : Rollerball.1975.DVDRip.XviD.AC3-SiC.avi\nFormat                                   : AVI\nFormat/Info                              : Audio Video Interleave\nFile size                                : 1.45 GiB\nDuration                                 : 1h 59mn\nOverall bit rate                         : 1 737 Kbps\nWriting application                      : VirtualDubMod 1.5.10.2 (build 2540/release)\nWriting library                          : VirtualDubMod build 2540/release\n\nVideo\nID                                       : 0\nFormat                                   : MPEG-4 Visual\nFormat profile                           : Advanced Simple@L5\nFormat settings, BVOP                    : 2\nFormat settings, QPel                    : No\nFormat settings, GMC                     : No warppoints\nFormat settings, Matrix                  : Default (H.263)\nMuxing mode                              : Packed bitstream\nCodec ID                                 : XVID\nCodec ID/Hint                            : XviD\nDuration                                 : 1h 59mn\nBit rate                                 : 1 279 Kbps\nWidth                                    : 720 pixels\nHeight                                   : 304 pixels\nDisplay aspect ratio                     : 2.35:1\nFrame rate                               : 25.000 fps\nColor space                              : YUV\nChroma subsampling                       : 4:2:0\nBit depth                                : 8 bits\nScan type                                : Progressive\nCompression mode                         : Lossy\nBits/(Pixel*Frame)                       : 0.234\nStream size                              : 1.07 GiB (74%)\nWriting library                          : XviD 64\n\nAudio\nID                                       : 1\nFormat                                   : AC-3\nFormat/Info                              : Audio Coding 3\nMode extension                           : CM (complete main)\nCodec ID                                 : 2000\nDuration                                 : 1h 59mn\nBit rate mode                            : Constant\nBit rate                                 : 448 Kbps\nChannel(s)                               : 6 channels\nChannel positions                        : Front: L C R, Side: L R, LFE\nSampling rate                            : 48.0 KHz\nBit depth                                : 16 bits\nCompression mode                         : Lossy\nStream size                              : 383 MiB (26%)\nAlignment                                : Split accross interleaves\nInterleave, duration                     : 40 ms (1.00 video frame)\nInterleave, preload duration             : 500 ms\n\nScreenshots:\n[IMG]http://i.imgur.com/z01tl.jpg[/IMG]\n[IMG]http://i.imgur.com/WwXII.jpg[/IMG]\n[IMG]http://i.imgur.com/k2ZFf.jpg[/IMG]\n[IMG]http://i.imgur.com/YN9ho.jpg[/IMG]\n\nSource:  Rollerball.1975.PAL.DVD5\n\nEnjoy!\n\nRespects to T00NG0D, ELEKTRI4KA, PA, YeFsTe, MrRep and everyone in the struggle...","torrent":{"xt":"urn:btih:f20a485887d155206272262f9ddf3ce384980c3b","amp;dn":"Rollerball.1975.DVDRip.XviD.AC3-SiC","amp;tr":["udp%3A%2F%2Ftracker.openbittorrent.com%3A80","udp%3A%2F%2Fopen.demonii.com%3A1337","udp%3A%2F%2Ftracker.coppersurfer.tk%3A6969","udp%3A%2F%2Fexodus.desync.com%3A6969"],"infoHash":"f20a485887d155206272262f9ddf3ce384980c3b","infoHashBuffer":{"type":"Buffer","data":[242,10,72,88,135,209,85,32,98,114,38,47,157,223,60,227,132,152,12,59]},"announce":[],"urlList":[]}}